<?xml version="1.0" standalone="no"?>
<!DOCTYPE svg PUBLIC "-//W3C//DTD SVG 20010904//EN"
 "http://www.w3.org/TR/2001/REC-SVG-20010904/DTD/svg10.dtd">
<svg version="1.0" xmlns="http://www.w3.org/2000/svg"
 width="446.000000pt" height="446.000000pt" viewBox="0 0 446.000000 446.000000"
 preserveAspectRatio="xMidYMid meet">
<metadata>
Created by potrace 1.11, written by Peter Selinger 2001-2013
</metadata>
<g transform="translate(0.000000,446.000000) scale(0.100000,-0.100000)"
fill="#000000" stroke="none">
<path d="M79 4437 c-18 -12 -44 -38 -56 -56 l-23 -34 0 -2117 0 -2117 23 -34
c12 -18 38 -44 56 -56 l34 -23 2117 0 2117 0 34 23 c18 12 44 38 56 56 l23 34
0 2117 0 2117 -23 34 c-12 18 -38 44 -56 56 l-34 23 -2117 0 -2117 0 -34 -23z
m3339 -379 c8 -8 12 -47 12 -110 0 -61 4 -98 10 -98 6 0 45 20 88 45 42 25 82
45 89 45 11 0 72 -99 87 -140 4 -11 -19 -29 -79 -65 -54 -31 -85 -56 -85 -66
0 -11 30 -35 80 -64 44 -26 82 -51 85 -56 3 -4 -8 -33 -26 -64 -31 -55 -31
-55 -80 -55 -37 0 -61 7 -97 30 -27 17 -54 30 -61 30 -6 0 -11 -13 -11 -30 l0
-30 -100 0 c-99 0 -100 0 -100 24 0 38 -16 40 -70 7 -38 -24 -62 -31 -99 -31
-49 0 -50 0 -80 54 -17 29 -31 57 -31 62 0 5 38 31 85 57 55 31 85 54 85 66 0
11 -31 35 -85 66 -46 28 -85 53 -85 57 0 16 83 148 93 148 7 0 46 -20 87 -45
41 -25 81 -45 88 -45 9 0 12 26 12 98 0 63 4 102 12 110 16 16 160 16 176 0z
m-1390 -344 c168 -34 327 -129 488 -289 127 -127 262 -305 353 -467 31 -54 34
-57 59 -47 15 6 82 13 149 16 102 5 136 2 216 -16 130 -30 142 -44 177 -216
33 -164 113 -743 106 -777 -3 -18 -14 -47 -25 -63 -26 -44 -125 -94 -200 -101
-57 -6 -67 -4 -135 29 -143 71 -210 177 -275 439 -42 168 -67 234 -100 267
-28 28 -72 27 -98 -1 -44 -49 -48 -66 -49 -248 -1 -148 0 -158 5 -63 7 129 19
154 68 137 36 -12 65 -66 93 -172 49 -191 133 -319 252 -383 58 -31 70 -34
148 -34 l85 0 8 -75 c10 -94 -6 -271 -34 -370 -115 -416 -441 -735 -863 -844
-583 -152 -1192 108 -1448 619 -81 160 -113 290 -128 524 -10 143 1 473 18
533 5 20 51 58 177 147 176 125 208 138 250 108 18 -14 47 -176 120 -675 26
-179 38 -221 82 -285 41 -60 84 -80 163 -79 71 2 146 20 84 21 -16 1 -51 14
-76 30 -35 23 -53 44 -77 93 -28 57 -37 108 -102 523 -39 253 -78 475 -87 494
-18 38 -65 71 -102 71 -32 0 -53 -14 -319 -205 -122 -88 -231 -167 -243 -175
-21 -14 -21 -14 -16 59 8 113 52 191 144 255 l71 50 23 95 c124 519 350 904
605 1031 113 57 287 74 433 44z"/>
<path d="M2847 2875 c-20 -14 -37 -28 -37 -31 0 -7 59 29 72 44 16 18 7 15
-35 -13z"/>
<path d="M1940 2739 c-127 -15 -300 -51 -300 -61 0 -6 16 -7 38 -4 164 27 430
34 526 14 69 -13 65 -6 107 -207 34 -165 50 -422 31 -521 -37 -198 -143 -306
-350 -357 -81 -20 -97 -39 -24 -28 229 33 389 125 453 259 43 90 52 153 46
301 -5 131 -70 549 -88 571 -24 29 -304 50 -439 33z"/>
<path d="M3100 2741 c0 -5 25 -12 55 -16 45 -5 56 -10 60 -28 3 -12 28 -175
55 -362 33 -220 47 -341 40 -343 -5 -2 -10 -10 -10 -18 0 -19 40 -18 90 2 38
15 40 19 35 48 -6 32 -91 597 -102 672 -5 39 -8 42 -42 48 -55 9 -181 7 -181
-3z"/>
</g>
</svg>
