<?xml version="1.0" encoding="UTF-8"?>
<svg width="156px" height="38px" viewBox="0 0 156 38" version="1.1" xmlns="http://www.w3.org/2000/svg" xmlns:xlink="http://www.w3.org/1999/xlink">
    <!-- Generator: Sketch 42 (36781) - http://www.bohemiancoding.com/sketch -->
    <title>egghead-instructors-light</title>
    <desc>Created with Sketch.</desc>
    <defs></defs>
    <g id="Page-1" stroke="none" stroke-width="1" fill="none" fill-rule="evenodd">
        <g id="egghead-instructors-light" fill-rule="nonzero">
            <g>
                <g id="text" transform="translate(50.000000, 12.000000)" fill="#FCFBFA">
                    <path d="M0,0.891220096 C0.0138231755,0.395410543 0.465980258,-2.52177073e-05 1.01890833,0.000129794838 C1.28609988,-0.00394122765 1.54403316,0.0878983404 1.73536994,0.255232678 C1.92670673,0.422567015 2.03559054,0.651528794 2.03781666,0.891220096 C2.03320075,1.39424956 1.57971276,1.8010185 1.01890833,1.80515887 C0.461838153,1.79311318 0.0134291811,1.39090002 0,0.891220096 Z M0.365108818,14.6003017 L0.365108818,3.59495563 L1.72365326,3.59495563 L1.72365326,14.5926855 L0.365108818,14.6003017 Z M13.0275133,14.5850762 L13.0275133,7.09415958 C13.0275133,4.96259793 11.9372278,4.32312944 10.3133984,4.32312944 C8.87014361,4.38490109 7.53212867,5.08409692 6.67138111,6.22630948 L6.67138111,14.6003017 L5.43417776,14.6003017 L5.43417776,3.5923083 L6.67138111,3.5923083 L6.67138111,5.2518813 C7.69682193,4.08926299 9.16094973,3.39054781 10.7232221,3.31825038 C13.0429783,3.31825038 14.2647166,4.40686936 14.2647166,6.88861613 L14.2647166,14.5774635 L13.0275133,14.5850762 Z M16.3025333,12.8812748 L17.0477602,12.0365946 C17.9820949,13.0568944 19.3601808,13.6383266 20.8059478,13.6222223 C22.761167,13.6222223 23.9150668,12.6886284 23.9150668,11.4364271 C23.9150668,8.47263705 16.5669687,10.1694069 16.5669687,6.28684189 C16.5669687,4.63452893 18.0814622,3.32305184 20.7097895,3.32305184 C22.2833951,3.25896501 23.8076523,3.83899507 24.87665,4.90867951 L24.1795022,5.73113125 C23.3347619,4.76467317 22.0444416,4.22585069 20.7017763,4.27887413 C18.8907947,4.27887413 17.8090136,5.12355429 17.8090136,6.24238504 C17.8090136,8.93943398 25.1330721,7.28712103 25.1330721,11.4290176 C25.1330721,13.1702443 23.6906974,14.5928635 20.7738951,14.5928635 C19.0802402,14.6767551 17.4364807,14.0475418 16.3025333,12.8812748 L16.3025333,12.8812748 Z M29.0744307,12.8263365 L29.0744307,4.84143633 L27.1708888,4.84143633 L27.1708888,3.75258631 L29.0744307,3.75258631 L29.0744307,0.663650075 L30.338193,0.663650075 L30.338193,3.75258631 L32.7077473,3.75258631 L32.7077473,4.83371399 L30.338193,4.83371399 L30.338193,12.6410003 C30.338193,13.5445142 30.7173217,14.1854684 31.5308686,14.1854684 C32.012524,14.175575 32.4702412,13.9782268 32.8025294,13.6371823 L33.2843388,14.5638631 C32.7586364,15.0517396 32.048889,15.3035642 31.3255073,15.2588738 C29.8089925,15.2588738 29.0744307,14.3630823 29.0744307,12.8263365 Z M36.6428832,14.6003017 L36.6428832,3.5478715 L37.9993083,3.5478715 L37.9993083,5.46138088 C38.8973576,4.19616331 40.4150135,3.39853406 42.077061,3.31825038 L42.077061,4.62709079 C41.862331,4.58796965 41.6431317,4.57254858 41.4242814,4.58116657 C40.0155486,4.73382948 38.763943,5.46551089 38.0332189,6.56356228 L38.0332189,14.6003017 L36.6428832,14.6003017 Z M52.5307093,14.2519967 L52.5307093,12.7376274 C51.4774365,13.8777138 49.9834124,14.5512189 48.3987727,14.6003017 C46.037666,14.6003017 44.7941499,13.5553868 44.7941499,11.0718212 L44.7941499,3.31825038 L46.0534068,3.31825038 L46.0534068,10.8143784 C46.0534068,12.957211 47.1631269,13.547815 48.8159015,13.547815 C50.2711372,13.4964805 51.6282223,12.8284279 52.522839,11.723 L52.522839,3.31825038 L53.6246887,3.31825038 L53.6246887,14.2519967 L52.5307093,14.2519967 Z M57.0210498,9.22115622 C57.0210498,5.93518351 59.1909161,3.3234552 62.5044664,3.3234552 C64.0869118,3.24941931 65.6005836,3.96905129 66.5308609,5.2376893 L65.6848481,6.01268287 C64.9816105,4.99468594 63.7965835,4.40848955 62.5514672,4.46269574 C59.8880934,4.46269574 58.2665688,6.5629283 58.2665688,9.26765583 C58.2665688,11.9723834 59.8959268,14.0958657 62.5514672,14.0958657 C63.7956145,14.14559 64.9785678,13.5604194 65.6848481,12.5458786 L66.5308609,13.3208722 C65.6116571,14.605086 64.0930975,15.3358105 62.5044664,15.2583561 C59.1909161,15.142107 57.0210498,12.5071289 57.0210498,9.22115622 Z M70.0887861,12.8263365 L70.0887861,4.84143633 L68.2101331,4.84143633 L68.2101331,3.75258631 L70.0966139,3.75258631 L70.0966139,0.663650075 L71.3490492,0.663650075 L71.3490492,3.75258631 L73.6973655,3.75258631 L73.6973655,4.83371399 L71.3490492,4.83371399 L71.3490492,12.6410003 C71.3490492,13.5445142 71.7247798,14.1854684 72.5310351,14.1854684 C73.027433,14.1902328 73.5036065,13.991702 73.8460922,13.6371823 L74.3235831,14.5638631 C73.8025926,15.0517396 73.0992066,15.3035642 72.3823084,15.2588738 C70.8245919,15.2588738 70.0887861,14.3630823 70.0887861,12.8263365 Z M75.6821276,8.94817892 C75.6821276,5.81139876 77.9254302,3.31825038 81.4352468,3.31825038 C84.9450634,3.31825038 87.2297553,5.81139876 87.2297553,8.94817892 C87.2297553,12.0849591 84.9864527,14.6003017 81.4352468,14.6003017 C77.8840408,14.6003017 75.6821276,12.0849591 75.6821276,8.94817892 Z M85.8390733,8.94817892 C85.8390733,6.56600153 84.274556,4.36137774 81.4352468,4.36137774 C78.5959376,4.36137774 77.0562539,6.58079767 77.0562539,8.94817892 C77.0562539,11.3155602 78.6456048,13.5571743 81.4352468,13.5571743 C84.2248887,13.5571743 85.8390733,11.3525505 85.8390733,8.94817892 Z M89.9468442,14.6003017 L89.9468442,3.5478715 L91.3032692,3.5478715 L91.3032692,5.46138088 C92.2013185,4.19616331 93.7189745,3.39853406 95.381022,3.31825038 L95.381022,4.62709079 C95.166292,4.58796965 94.9470926,4.57254858 94.7282424,4.58116657 C93.3195095,4.73382948 92.067904,5.46551089 91.3371798,6.56356228 L91.3371798,14.6003017 L89.9468442,14.6003017 Z M96.7395664,12.8809494 L97.4841177,12.0362979 C98.4176053,13.0565631 99.7944418,13.6379754 101.238898,13.6218717 C103.192345,13.6218717 104.345198,12.6883096 104.345198,11.4361509 C104.345198,8.47246167 97.003762,10.1691737 97.003762,6.28674088 C97.003762,4.63448415 98.5168825,3.32305167 101.142827,3.32305167 C102.715006,3.25896703 104.237881,3.83897735 105.30591,4.9086254 L104.609394,5.73104915 C103.767125,4.76677062 102.481504,4.22820071 101.142827,4.27884144 C99.3334871,4.27884144 98.2526868,5.12349287 98.2526868,6.24228554 C98.2526868,8.93924272 105.570105,7.28698599 105.570105,11.4287417 C105.570105,13.1699091 104.129038,14.5924799 101.21488,14.5924799 C99.5200157,14.6786507 97.8742823,14.0492596 96.7395664,12.8809494 L96.7395664,12.8809494 Z" id="instructors"></path>
                </g>
                <g id="eggo">
                    <path d="M18.6747562,37.8954185 C16.5997833,37.8954185 14.6400867,37.4360801 12.7956663,36.7470725 C10.9512459,35.9432303 9.33737811,34.9097188 8.06933911,33.416869 C6.68602384,32.0388538 5.64853738,30.4311694 4.95687974,28.5938158 C4.72632719,27.9048082 4.49577465,27.2158006 4.2652221,26.4119583 L4.14994583,26.4119583 L4.03466956,25.2636123 C2.65135428,24.6894393 1.61386782,23.3114241 1.268039,22.0482435 C0.806933911,20.4405591 0.345828819,18.0290324 0.230552546,15.847175 C0.230552546,14.124656 1.15276273,12.5169716 2.76663055,11.827964 C3.80411701,11.3686255 5.30270856,10.9092871 7.03185265,10.6796179 C8.18461538,8.26809131 9.45265439,6.08623388 10.8359697,4.47854946 C13.2567714,1.60768442 15.9081257,0.114834601 18.6747562,0.114834601 C21.4413868,0.114834601 24.0927411,1.60768442 26.5135428,4.47854946 C27.8968581,6.08623388 29.1648971,8.1532567 30.2023835,10.6796179 C31.9315276,11.0241217 33.4301192,11.3686255 34.5828819,11.827964 C36.1967497,12.5169716 37.1189599,14.124656 37.1189599,15.847175 C37.0036836,18.3735362 36.4273023,21.1295667 36.0814735,22.1630781 C35.7356446,23.5410933 34.6981582,24.9191085 33.3148429,25.3784469 L33.1995666,26.5267929 L33.0842904,26.5267929 C32.9690141,27.2158006 32.7384615,28.0196428 32.3926327,28.7086504 C31.7009751,30.546004 30.6634886,32.1536884 29.2801733,33.5317036 C27.8968581,34.9097188 26.2829902,36.0580649 24.5538462,36.8619071 C22.8247021,37.4360801 20.8650054,37.8954185 18.6747562,37.8954185 Z" id="Shape" fill="#FFFFFF"></path>
                    <path d="M18.6747562,2.75603044 C25.2455038,2.75603044 30.5482124,16.7658518 30.5482124,23.3114241 C30.5482124,29.8569964 25.2455038,35.1393881 18.6747562,35.1393881 C12.1040087,35.1393881 6.80130011,29.8569964 6.80130011,23.3114241 C6.80130011,16.7658518 12.1040087,2.75603044 18.6747562,2.75603044 Z" id="Shape" fill="#FCFBFA"></path>
                    <path d="M33.6606717,14.124656 L28.8190683,15.847175 C28.8190683,15.847175 29.5107259,18.143867 29.6260022,18.143867 L34.4676056,17.569694 L33.6606717,14.124656 Z M3.68884074,14.124656 L8.5304442,15.847175 C8.5304442,15.847175 7.83878657,18.143867 7.72351029,18.143867 L2.88190683,17.569694 L3.68884074,14.124656 Z" id="Shape" fill="#252526"></path>
                    <path d="M13.7178765,13.6653176 C14.9859155,13.6653176 15.216468,14.698829 15.216468,14.9284982 C15.3317443,15.6175058 15.4470206,16.5361826 15.5622969,17.4548594 C15.5622969,17.6845286 15.5622969,17.9141978 15.4470206,18.143867 C15.3317443,17.569694 15.3317443,16.995521 15.216468,16.421348 C15.216468,16.1916788 14.8706392,15.1581674 13.7178765,15.1581674 C13.0262189,15.1581674 10.6054171,15.273002 8.29989166,15.6175058 C8.41516793,15.0433328 8.64572048,14.5839944 8.87627302,14.0098214 C10.9512459,13.7801522 12.9109426,13.6653176 13.7178765,13.6653176 Z M30.5482124,22.7372511 C26.2829902,22.5075819 22.5941495,21.1295667 21.7872156,20.6702283 C21.095558,20.3257245 20.2886241,19.7515515 20.0580715,18.143867 C19.9427952,19.9812207 20.2886241,21.5889051 21.9024919,22.3927473 C22.0177681,22.5075819 25.2455038,24.0004317 30.4329361,24.3449355 L30.4329361,23.3114241 C30.5482124,23.1965895 30.5482124,22.9669203 30.5482124,22.7372511 Z M6.91657638,22.7372511 C11.1817985,22.5075819 14.8706392,21.1295667 15.6775731,20.6702283 C16.3692308,20.3257245 17.1761647,19.7515515 17.4067172,18.143867 C17.5219935,19.9812207 17.1761647,21.5889051 15.5622969,22.3927473 C15.4470206,22.5075819 12.2192849,24.0004317 7.03185265,24.3449355 L7.03185265,23.3114241 C6.80130011,23.1965895 6.80130011,22.9669203 6.91657638,22.7372511 Z M23.631636,13.6653176 C22.363597,13.6653176 22.1330444,14.698829 22.1330444,14.9284982 C22.0177681,15.6175058 21.9024919,16.5361826 21.7872156,17.4548594 C21.7872156,17.6845286 21.7872156,17.9141978 21.9024919,18.143867 C22.0177681,17.569694 22.0177681,16.995521 22.1330444,16.421348 C22.1330444,16.1916788 22.4788732,15.1581674 23.631636,15.1581674 C24.3232936,15.1581674 26.7440953,15.273002 29.0496208,15.6175058 C28.9343445,15.0433328 28.703792,14.5839944 28.4732394,14.0098214 C26.3982665,13.7801522 24.3232936,13.6653176 23.631636,13.6653176 Z" id="Shape" fill="#E0E0E0"></path>
                    <path d="M8.29989166,12.402137 C9.45265439,9.64610652 10.8359697,7.11974529 12.3345612,5.39722627 C14.2942579,2.98569964 16.484507,1.72251902 18.6747562,1.72251902 C20.8650054,1.72251902 22.9399783,2.98569964 25.0149512,5.39722627 C26.5135428,7.23457989 27.8968581,9.64610652 29.0496208,12.402137 L29.0496208,12.5169716 L28.9343445,12.5169716 C28.4732394,12.5169716 28.2426869,12.402137 27.7815818,12.402137 L27.7815818,12.402137 L27.7815818,12.402137 C26.5135428,9.30160272 24.2080173,5.39722627 21.3261105,3.67470725 C20.4039003,3.21536884 19.5969664,2.87086504 18.6747562,2.87086504 C17.752546,2.87086504 16.9456121,3.10053424 16.023402,3.67470725 C13.1414951,5.28239167 10.9512459,9.30160272 9.56793066,12.402137 L9.56793066,12.402137 L9.56793066,12.402137 C9.10682557,12.402137 8.87627302,12.5169716 8.41516793,12.5169716 L8.29989166,12.5169716 L8.29989166,12.402137 L8.29989166,12.402137 Z M30.6634886,21.3592359 L29.7412784,21.3592359 L29.6260022,21.3592359 L29.6260022,21.2444013 C29.3954496,18.9477092 28.703792,16.421348 27.7815818,13.8949868 L27.6663055,13.6653176 L27.8968581,13.6653176 C28.2426869,13.6653176 28.5885157,13.7801522 28.9343445,13.7801522 L29.0496208,13.7801522 L29.0496208,13.8949868 C29.8565547,16.421348 30.5482124,19.0625438 30.7787649,21.2444013 L30.7787649,21.3592359 L30.6634886,21.3592359 Z" id="Shape" fill="#56555C"></path>
                    <path d="M29.6260022,15.6175058 C29.3954496,15.0433328 29.2801733,14.4691598 29.0496208,13.8949868 L29.0496208,13.7801522 L28.9343445,13.7801522 C28.5885157,13.6653176 28.2426869,13.6653176 27.8968581,13.6653176 L27.6663055,13.6653176 L27.7815818,13.8949868 C28.0121343,14.4691598 28.1274106,15.0433328 28.3579632,15.6175058 C28.9343445,15.5026712 29.2801733,15.6175058 29.6260022,15.6175058 Z" id="Shape" fill="#252526"></path>
                    <path d="M6.68602384,21.1295667 C6.91657638,18.9477092 7.60823402,16.3065134 8.41516793,13.7801522 L8.41516793,13.6653176 L8.5304442,13.6653176 C8.87627302,13.6653176 9.22210184,13.550483 9.56793066,13.550483 L9.79848321,13.550483 L9.68320693,13.7801522 C8.76099675,16.3065134 8.18461538,18.9477092 7.83878657,21.1295667 L7.83878657,21.2444013 L7.72351029,21.2444013 L6.80130011,21.2444013 L6.68602384,21.1295667 L6.68602384,21.1295667 Z" id="Shape" fill="#56555C"></path>
                    <path d="M8.5304442,13.7801522 L8.5304442,13.7801522 L8.5304442,13.7801522 C8.18461538,14.4691598 8.06933911,15.0433328 7.83878657,15.6175058 C8.41516793,15.5026712 8.64572048,15.5026712 9.10682557,15.5026712 C9.33737811,14.9284982 9.45265439,14.3543252 9.68320693,13.7801522 L9.79848321,13.550483 L9.56793066,13.550483 C9.22210184,13.6653176 8.87627302,13.6653176 8.5304442,13.7801522 Z" id="Shape" fill="#252526"></path>
                    <path d="M18.6747562,36.1728995 C16.9456121,36.1728995 15.216468,35.8283957 13.6026002,35.1393881 C11.9887324,34.4503804 10.6054171,33.5317036 9.45265439,32.268523 C8.29989166,31.0053424 7.37768147,29.6273272 6.68602384,28.0196428 C5.9943662,26.4119583 5.76381365,24.5746047 5.76381365,22.7372511 L5.76381365,22.6224165 L5.87908992,22.6224165 L6.91657638,22.6224165 L7.03185265,22.6224165 L7.03185265,22.7372511 C6.91657638,24.4597701 7.2624052,25.9526199 7.83878657,27.5603044 C8.41516793,29.0531542 9.22210184,30.3163348 10.2595883,31.4646808 C11.2970748,32.6130268 12.68039,33.5317036 14.0637053,34.1058766 C15.5622969,34.7948842 17.0608884,35.0245535 18.6747562,35.0245535 C20.2886241,35.0245535 21.9024919,34.6800496 23.2858072,34.1058766 C24.6691224,33.5317036 26.0524377,32.6130268 27.0899242,31.4646808 C28.1274106,30.3163348 29.0496208,29.0531542 29.5107259,27.5603044 C30.0871073,26.0674545 30.3176598,24.4597701 30.3176598,22.7372511 L30.3176598,22.6224165 L30.4329361,22.6224165 L31.4704225,22.6224165 L31.5856988,22.6224165 L31.5856988,22.7372511 C31.7009751,24.5746047 31.3551463,26.2971237 30.6634886,28.0196428 C30.0871073,29.6273272 29.1648971,31.0053424 27.8968581,32.268523 C26.7440953,33.5317036 25.2455038,34.4503804 23.7469122,35.1393881 C22.1330444,35.8283957 20.4039003,36.1728995 18.6747562,36.1728995 Z" id="Shape" fill="#56555C"></path>
                    <path d="M7.03185265,24.3449355 L7.03185265,22.8520857 L7.03185265,22.7372511 L6.91657638,22.7372511 L5.87908992,22.7372511 L5.76381365,22.7372511 L5.76381365,22.8520857 L5.76381365,24.3449355 L5.76381365,24.3449355 L7.03185265,24.3449355 L7.03185265,24.3449355 Z M31.5856988,22.7372511 L31.5856988,22.7372511 L30.5482124,22.7372511 L30.4329361,22.7372511 L30.4329361,22.8520857 L30.4329361,24.3449355 L31.5856988,24.3449355 L31.5856988,22.7372511 L31.5856988,22.7372511 Z" id="Shape" fill="#252526"></path>
                    <path d="M32.2773564,23.4262587 C29.6260022,23.4262587 27.2052004,22.8520857 24.899675,22.2779127 C23.7469122,21.9334089 22.7094258,21.4740705 21.9024919,21.1295667 L21.9024919,21.0147321 C19.9427952,20.0960553 19.827519,18.143867 19.9427952,16.3065134 C19.9427952,15.847175 19.827519,15.273002 19.3664139,14.9284982 C19.1358613,14.8136636 18.9053088,14.698829 18.6747562,14.698829 C18.4442037,14.698829 18.0983749,14.8136636 17.9830986,14.9284982 C17.5219935,15.273002 17.4067172,15.847175 17.4067172,16.3065134 C17.6372698,18.0290324 17.5219935,19.9812207 15.4470206,20.8998975 L15.4470206,20.8998975 C14.6400867,21.2444013 13.6026002,21.9334089 12.4498375,22.2779127 C10.144312,22.8520857 7.72351029,23.4262587 5.07215601,23.4262587 L5.07215601,23.4262587 C4.03466956,23.4262587 3.11245937,22.5075819 2.88190683,21.4740705 C2.53607801,19.9812207 1.95969664,17.6845286 1.95969664,15.6175058 C1.95969664,14.8136636 2.42080173,14.0098214 3.22773564,13.6653176 C5.9943662,12.402137 11.6429036,11.9427986 14.0637053,11.9427986 C14.9859155,11.9427986 15.6775731,12.2873024 16.2539545,12.8614754 C17.0608884,12.5169716 17.8678223,12.2873024 18.6747562,12.2873024 C19.4816901,12.2873024 20.2886241,12.5169716 21.095558,12.8614754 C21.5566631,12.402137 22.2483207,11.9427986 23.2858072,11.9427986 C24.6691224,11.9427986 30.8940412,12.1724678 34.1217768,13.550483 C34.9287107,13.8949868 35.3898158,14.698829 35.3898158,15.5026712 C35.2745395,17.569694 34.8134345,19.9812207 34.4676056,21.4740705 C34.2370531,22.5075819 33.3148429,23.4262587 32.2773564,23.4262587 L32.2773564,23.4262587 Z M23.631636,13.7801522 C22.4788732,13.7801522 22.2483207,14.8136636 22.1330444,14.9284982 C22.0177681,15.5026712 21.9024919,16.421348 21.7872156,17.4548594 C21.7872156,18.3735362 22.1330444,19.0625438 22.8247021,19.4070476 C25.3607801,20.5553937 28.3579632,21.1295667 31.8162514,21.1295667 C32.0468039,21.1295667 32.2773564,20.8998975 32.3926327,20.6702283 C32.7384615,19.4070476 33.1995666,17.4548594 33.1995666,15.6175058 C33.1995666,15.5026712 33.0842904,15.273002 32.9690141,15.273002 C30.6634886,14.124656 25.5913326,13.7801522 23.631636,13.7801522 Z M4.2652221,15.1581674 C4.14994583,15.273002 4.03466956,15.3878366 4.03466956,15.5026712 C4.03466956,17.3400248 4.49577465,19.292213 4.84160347,20.5553937 C4.95687974,20.7850629 5.18743229,21.0147321 5.41798483,21.0147321 C8.9915493,21.0147321 11.8734561,20.4405591 14.4095341,19.292213 C15.1011918,18.9477092 15.4470206,18.2587016 15.4470206,17.3400248 C15.4470206,16.5361826 15.3317443,15.7323404 15.1011918,14.8136636 C15.1011918,14.5839944 14.8706392,13.6653176 13.6026002,13.6653176 C12.5651138,13.7801522 6.91657638,14.0098214 4.2652221,15.1581674 Z" id="Shape" fill="#252526"></path>
                </g>
            </g>
        </g>
    </g>
</svg>