<?xml version="1.0" encoding="UTF-8"?>
<svg width="354px" height="38px" viewBox="0 0 354 38" version="1.1" xmlns="http://www.w3.org/2000/svg" xmlns:xlink="http://www.w3.org/1999/xlink">
    <!-- Generator: Sketch 42 (36781) - http://www.bohemiancoding.com/sketch -->
    <title>Group 4</title>
    <desc>Created with Sketch.</desc>
    <defs></defs>
    <g id="Design" stroke="none" stroke-width="1" fill="none" fill-rule="evenodd">
        <g id="1-1-1-Login" transform="translate(-543.000000, -467.000000)" fill-rule="nonzero">
            <g id="Group-4" transform="translate(543.000000, 467.000000)">
                <g id="instructorBanner.ff6de2c6" fill="#FFFFFB">
                    <g id="Instructor_Navbar_New">
                        <g id="Layer_2">
                            <g id="Layer_1-2">
                                <path d="M19.7040328,23.8401393 C19.4579625,24.7357507 19.0616474,25.5845344 18.5314742,26.3513957 C17.9926897,27.099851 17.3341137,27.7571462 16.5814581,28.2976193 C15.7611727,28.8906421 14.8486558,29.3486185 13.8794751,29.6536978 C12.784225,29.999872 11.6394051,30.1694735 10.4892512,30.155949 C9.12622901,30.1601175 7.77402982,29.9175205 6.50000267,29.440241 C5.2529922,28.9796367 4.11611488,28.2700023 3.16075953,27.3558982 C2.17645773,26.3982868 1.40024597,25.2533638 0.879368219,23.9908147 C0.291140178,22.5681573 -0.00348588133,21.0442984 0.0126944251,19.5082221 C-0.00754390034,18.0201664 0.274111577,16.5431163 0.84113261,15.1637486 C1.34684909,13.9299775 2.0963301,12.807482 3.0460527,11.8614465 C3.9581122,10.9600228 5.04060028,10.2433735 6.23235341,9.75199115 C10.02253,8.25642676 14.3479754,9.04320895 17.3461703,11.7735525 C19.1846962,13.8523291 20.1307674,16.5539166 19.9844273,19.3073216 L19.9844273,20.3871618 L19.9844273,20.9773071 L5.41666043,20.9773071 C5.43736321,21.6067848 5.59835788,22.224071 5.88823294,22.7854116 C6.16599983,23.3289387 6.54171472,23.8182117 6.99706558,24.229384 C7.45901524,24.6415742 7.994993,24.9652074 8.57747074,25.1836615 C9.19618104,25.4144719 9.85319501,25.5294484 10.5147416,25.5226811 C11.5907451,25.5836299 12.6558366,25.2825638 13.5353546,24.6688539 C14.2603292,24.1015978 14.8081191,23.3443188 15.1157598,22.4840609 L19.7040328,23.8401393 Z M14.6059517,17.3108728 C14.5787766,16.8170686 14.4756392,16.3301937 14.3000668,15.8669004 C14.1197442,15.394059 13.8370459,14.9655854 13.4716286,14.6112722 C13.0687893,14.2256372 12.5922567,13.9226162 12.0696563,13.7197762 C11.4317482,13.4783356 10.7517903,13.3631335 10.0686595,13.3807566 C9.41653885,13.367395 8.76905521,13.4915473 8.16962425,13.7448888 C7.64878332,13.967949 7.17366634,14.2828354 6.76765193,14.6740536 C6.39793045,15.0351807 6.09970675,15.4609823 5.88823294,15.9296818 C5.69002629,16.3659034 5.57344715,16.8338152 5.54411246,17.3108728 L14.6059517,17.3108728 Z" id="Shape"></path>
                                <path d="M27.0325245,29.352347 C27.1939437,30.4055471 27.7317969,31.3673472 28.5492036,32.0645039 C29.4509729,32.7945571 30.5949567,33.1702326 31.7609947,33.1192315 C33.1889002,33.2159741 34.5996317,32.766194 35.6992624,31.8636034 C36.7359171,30.7022582 37.2428027,29.1723639 37.1012347,27.6321364 L37.1012347,26.1128263 C36.5858919,26.8521081 35.8944717,27.4556777 35.0874927,27.8707058 C33.971306,28.4400155 32.7236979,28.7126712 31.467855,28.6617515 C30.1814151,28.6740069 28.9060983,28.4261431 27.7207654,27.9334872 C26.5968567,27.4675042 25.5818386,26.7794889 24.7383879,25.9119258 C23.8869951,25.0245982 23.2163645,23.9845444 22.7628815,22.848193 C21.8166807,20.3931467 21.8166807,17.6815764 22.7628815,15.22653 C23.2093643,14.0840668 23.8661307,13.0326412 24.7001523,12.1251284 C25.5276541,11.228699 26.5343564,10.5105135 27.6570394,10.0156731 C28.8610916,9.49328546 30.1650842,9.23207053 31.4806002,9.24973988 C32.8105185,9.18310791 34.133384,9.47851277 35.3041611,10.103567 C36.109578,10.5433792 36.7790379,11.1898985 37.2414319,11.974453 L37.2414319,9.61387205 L42.5052007,9.61387205 L42.5052007,27.4061233 C42.5104301,28.7468425 42.3084411,30.0805324 41.9061762,31.3613521 C41.1406696,33.9135764 39.2426042,35.98666 36.744369,36.9991226 C35.2036732,37.6146632 33.5504079,37.9096353 31.8884467,37.865506 C30.5891977,37.8835638 29.2962785,37.684009 28.0648859,37.2753608 C26.9881762,36.9155043 25.9801436,36.3807632 25.0825084,35.6932693 C24.2571804,35.0570754 23.5610252,34.2732627 23.0305308,33.3829134 C22.5395222,32.5266285 22.2234433,31.583916 22.100131,30.6079752 L27.0325245,29.352347 Z M32.4619809,24.0410398 C33.7562966,24.0840894 35.0079059,23.5817329 35.9031856,22.6598488 C36.8065619,21.6436446 37.2647961,20.3164057 37.1777059,18.968302 C37.2455232,17.6076827 36.7379278,16.2802205 35.7757336,15.3018677 C34.8850392,14.4145339 33.6647881,13.9245956 32.3982549,13.9457893 C31.7833793,13.9511015 31.1745511,14.0659576 30.6011812,14.2848089 C30.0191648,14.5111873 29.4932598,14.858021 29.0590117,15.3018677 C28.6083424,15.7634912 28.2571721,16.3102012 28.0266503,16.9090718 C27.7723102,17.5706273 27.6469145,18.27351 27.6570394,18.9808583 C27.5627012,20.3683349 28.0564828,21.7322478 29.0207761,22.7477428 C29.9416707,23.6218165 31.1841438,24.0887712 32.4619809,24.0410398 L32.4619809,24.0410398 Z" id="Shape"></path>
                                <path d="M50.0503608,29.352347 C50.2117801,30.4055471 50.7496333,31.3673472 51.5670399,32.0645039 C52.4787402,32.8034701 53.6380599,33.1797029 54.8170667,33.1192315 C56.2621446,33.2292434 57.6936651,32.7786679 58.8063151,31.8636034 C59.8429699,30.7022582 60.3498554,29.1723639 60.2082875,27.6321364 L60.2082875,26.1128263 C59.6929447,26.8521081 59.0015244,27.4556777 58.1945454,27.8707058 C57.0783588,28.4400155 55.8307507,28.7126712 54.5749078,28.6617515 C53.2884678,28.6740069 52.0131511,28.4261431 50.8278182,27.9334872 C49.7039094,27.4675042 48.6888914,26.7794889 47.8454407,25.9119258 C47.0031697,25.0224588 46.3412823,23.9825462 45.8954247,22.848193 C44.9492239,20.3931467 44.9492239,17.6815764 45.8954247,15.22653 C46.3419075,14.0840668 46.9986738,13.0326412 47.8326955,12.1251284 C48.6601972,11.228699 49.6668995,10.5105135 50.7895826,10.0156731 C51.9936348,9.49328546 53.2976274,9.23207053 54.6131434,9.24973988 C55.9430617,9.18310791 57.2659271,9.47851277 58.4367043,10.103567 C59.2421212,10.5433792 59.9115811,11.1898985 60.3739751,11.974453 L60.3739751,9.61387205 L65.6377439,9.61387205 L65.6377439,27.4061233 C65.634723,28.7481322 65.4241341,30.0818514 65.0132289,31.3613521 C64.2477223,33.9135764 62.3496569,35.98666 59.8514218,36.9991226 C58.3107259,37.6146632 56.6574606,37.9096353 54.9954995,37.865506 C53.6962504,37.8835638 52.4033313,37.684009 51.1719386,37.2753608 C50.0952289,36.9155043 49.0871963,36.3807632 48.1895612,35.6932693 C47.3642332,35.0570754 46.668078,34.2732627 46.1375835,33.3829134 C45.6153429,32.5332018 45.2688236,31.5901318 45.1179673,30.6079752 L50.0503608,29.352347 Z M55.4798172,24.0410398 C56.7741329,24.0840894 58.0257422,23.5817329 58.921022,22.6598488 C59.8243982,21.6436446 60.2826324,20.3164057 60.1955423,18.968302 C60.2633595,17.6076827 59.7557641,16.2802205 58.7935699,15.3018677 C57.9028755,14.4145339 56.6826244,13.9245956 55.4160912,13.9457893 C54.7755026,13.9418265 54.1398944,14.0568403 53.5425464,14.2848089 C52.9605299,14.5111873 52.434625,14.858021 52.0003768,15.3018677 C51.5497075,15.7634912 51.1985372,16.3102012 50.9680154,16.9090718 C50.7136753,17.5706273 50.5882796,18.27351 50.5984045,18.9808583 C50.5040663,20.3683349 50.9978479,21.7322478 51.9621412,22.7477428 C52.9016022,23.6412647 54.1758582,24.1097534 55.4798172,24.0410398 L55.4798172,24.0410398 Z" id="Shape"></path>
                                <path d="M73.7309477,29.5532475 L68.8367898,29.5532475 L68.8367898,0.196660725 L73.7436929,0.196660725 L73.7436929,11.2713012 C74.4124694,10.4817357 75.297151,9.89778517 76.2927334,9.58875949 C77.2479929,9.26218046 78.2512421,9.09250182 79.2623657,9.08650822 C80.4122214,9.05949695 81.5547796,9.27349354 82.6143541,9.71432231 C83.5119656,10.098748 84.3126319,10.6731988 84.9594714,11.3968641 C85.5923518,12.1293376 86.0613781,12.98503 86.3359533,13.9081204 C86.6430583,14.9054249 86.7976967,15.9422261 86.7947806,16.9844095 L86.7947806,29.5406912 L81.3270886,29.5406912 L81.3270886,17.9261306 C81.3663841,16.9096868 81.0565452,15.909895 80.4476696,15.0884109 C79.7355506,14.2817711 78.673398,13.8613391 77.5927441,13.9583455 C76.5630184,13.9081303 75.5653618,14.3188124 74.8780159,15.0758546 C74.2070819,15.8515688 73.8288703,16.8318758 73.8074189,17.8507929 L73.7309477,29.5532475 Z" id="Shape"></path>
                                <path d="M108.665549,23.8401393 C108.419478,24.7357507 108.023163,25.5845344 107.49299,26.3513957 C106.959642,27.1222272 106.300777,27.8010227 105.542974,28.3604007 C104.722689,28.9534235 103.810172,29.4113999 102.840991,29.7164792 C101.745741,30.0626534 100.600921,30.2322549 99.450767,30.2187304 C98.0877449,30.2228989 96.7355457,29.9803019 95.4615185,29.5030224 C94.214508,29.0424181 93.0776307,28.3327837 92.1222754,27.4186796 C91.1379736,26.4610682 90.3617618,25.3161452 89.8408841,24.0535961 C89.2597089,22.6252732 88.9737291,21.0970431 88.9997007,19.5584472 C88.9794624,18.0703916 89.2611178,16.5933414 89.8281389,15.2139737 C90.3338553,13.9802026 91.0833364,12.8577071 92.033059,11.9116716 C92.9451185,11.010248 94.0276065,10.2935986 95.2193597,9.80221628 C99.0071316,8.30335447 103.332277,9.08519562 106.333177,11.8112214 C108.171702,13.8899979 109.117774,16.5915855 108.971434,19.3449904 L108.971434,20.4248307 L108.971434,21.0149759 L94.3271955,21.0149759 C94.3478982,21.6444537 94.5088929,22.2617399 94.798768,22.8230805 C95.0765349,23.3666075 95.4522498,23.8558806 95.9076006,24.2670529 C96.3695503,24.6792431 96.905528,25.0028762 97.4880058,25.2213303 C98.1050477,25.4607172 98.7621155,25.5842206 99.4252766,25.5854625 C100.50128,25.6464113 101.566372,25.3453452 102.44589,24.7316353 C103.170864,24.1643792 103.718654,23.4071002 104.026295,22.5468423 L108.665549,23.8401393 Z M103.567468,17.3108728 C103.540292,16.8170686 103.437155,16.3301937 103.261583,15.8669004 C103.08126,15.394059 102.798562,14.9655854 102.433144,14.6112722 C102.030305,14.2256372 101.553773,13.9226162 101.031172,13.7197762 C100.393264,13.4783356 99.7133061,13.3631335 99.0301753,13.3807566 C98.3780547,13.367395 97.7305711,13.4915473 97.1311401,13.7448888 C96.6102992,13.967949 96.1351822,14.2828354 95.7291678,14.6740536 C95.3594463,15.0351807 95.0612226,15.4609823 94.8497488,15.9296818 C94.6515421,16.3659034 94.534963,16.8338152 94.5056283,17.3108728 L103.567468,17.3108728 Z" id="Shape"></path>
                                <path d="M110.768507,24.1289338 C110.725087,22.549757 111.369933,21.0278094 112.54009,19.947692 C113.092289,19.4153518 113.740702,18.9894837 114.451871,18.6920638 C115.213439,18.3838455 116.009079,18.1647058 116.822478,18.0391371 L121.805853,17.3108728 C122.253565,17.2910516 122.678975,17.1127094 123.003902,16.8086215 C123.224595,16.5533879 123.342511,16.227223 123.335277,15.8920129 C123.335748,15.1937501 123.028891,14.529587 122.494094,14.0713521 C121.394629,13.1311728 119.855152,12.8725776 118.50157,13.4007037 C117.147987,13.9288299 116.205682,15.15574 116.057766,16.5826084 L111.189099,15.5404371 C111.28328,14.7188968 111.534081,13.9222656 111.928321,13.1924124 C112.351178,12.3923733 112.921712,11.6770024 113.610687,11.082957 C114.389896,10.4239036 115.283711,9.90917694 116.248944,9.56364693 C117.409345,9.15293371 118.635741,8.95298229 119.868582,8.97350168 C121.255311,8.93973364 122.636871,9.15240252 123.947047,9.60131577 C124.969363,9.95622271 125.903414,10.5211866 126.687265,11.258745 C127.376136,11.9353 127.895437,12.7607442 128.203945,13.6695511 C128.519852,14.5961185 128.679162,15.5675068 128.675517,16.5449396 L128.675517,26.3639519 C128.675517,26.9080575 128.701008,27.481461 128.751988,28.0841625 C128.802969,28.6868641 128.858198,29.1681882 128.917676,29.5281349 L123.896066,29.5281349 C123.828902,29.1583968 123.782101,28.7853481 123.755869,28.4106259 L123.755869,27.1549977 C123.17171,27.9995459 122.405835,28.7069112 121.512713,29.2267842 C120.380988,29.860413 119.0918,30.1692334 117.791114,30.1182802 C116.798892,30.1341955 115.812676,29.9637398 114.885208,29.6160289 C114.071162,29.308482 113.323162,28.8527039 112.680288,28.2725068 C112.091804,27.7374859 111.623003,27.0874721 111.303806,26.3639519 C110.970225,25.6634939 110.787943,24.9024171 110.768507,24.1289338 L110.768507,24.1289338 Z M118.874456,26.1128263 C119.438926,26.1138944 120.000819,26.0378321 120.544078,25.8868132 C121.069365,25.742568 121.553595,25.4804043 121.958795,25.12088 C122.389043,24.7257866 122.724326,24.2410421 122.940176,23.7020202 C123.208878,22.9962837 123.334453,22.2454738 123.309787,21.4921146 L123.309787,20.5629498 L118.747004,21.2535453 C118.093519,21.3393018 117.476389,21.5998656 116.962676,22.0069222 C116.458135,22.4510362 116.190025,23.0997912 116.236199,23.7648016 C116.23682,24.3650099 116.47451,24.9414216 116.89895,25.3720057 C117.417595,25.8889679 118.13816,26.1591818 118.874456,26.1128263 L118.874456,26.1128263 Z" id="Shape"></path>
                                <path d="M151.680608,25.9495946 L151.680608,27.9585997 C151.680608,28.6198972 151.723092,29.1556319 151.80806,29.5658038 L146.582527,29.5658038 C146.512735,29.2471819 146.465886,28.9240992 146.44233,28.5989701 L146.44233,27.2554479 C145.913339,28.0958627 145.165079,28.7809951 144.275645,29.2393405 C143.194806,29.8074164 141.98254,30.088682 140.757969,30.0554988 C139.386546,30.0711707 138.027196,29.8016191 136.768721,29.264453 C135.588414,28.7584852 134.528986,28.0141897 133.658891,27.07966 C132.770378,26.1084974 132.078243,24.9791407 131.619659,23.7522453 C130.647074,21.0729517 130.647074,18.144393 131.619659,15.4650994 C132.068256,14.2493731 132.747304,13.1287209 133.620656,12.1627973 C135.994263,9.680838 139.525612,8.6247118 142.899164,9.38785898 C143.477838,9.52333581 144.038256,9.72563609 144.568785,9.99056051 C144.98457,10.1974455 145.366851,10.4640374 145.703108,10.7816063 C145.958935,11.022678 146.174062,11.3024359 146.340368,11.6103209 L146.340368,0.196660725 L151.680608,0.196660725 L151.680608,25.9495946 Z M136.386365,19.5458909 C136.290795,21.0675035 136.797922,22.5663348 137.801082,23.7271328 C138.733683,24.6849173 140.022554,25.2263986 141.369739,25.2263986 C142.716924,25.2263986 144.005796,24.6849173 144.938396,23.7271328 C145.959023,22.559934 146.475897,21.045815 146.378604,19.5082221 C146.480905,18.0003694 145.961682,16.5155841 144.938396,15.3897617 C142.977627,13.4594444 139.800087,13.4594444 137.839318,15.3897617 C136.80416,16.5244032 136.279944,18.0239051 136.386365,19.5458909 L136.386365,19.5458909 Z" id="Shape"></path>
                                <path d="M154.522788,27.4689047 C154.511427,26.9193427 154.72771,26.3889174 155.121813,25.9998198 C155.503282,25.6057606 156.034875,25.3871671 156.587511,25.3971182 C157.748943,25.3971182 158.69047,26.3246886 158.69047,27.4689047 C158.700571,28.0133494 158.478688,28.5370629 158.0787,28.9128771 C157.683748,29.3011383 157.145342,29.5142152 156.587511,29.5030224 C156.034442,29.5098341 155.502003,29.296391 155.110893,28.9110787 C154.719784,28.5257664 154.503129,28.0012198 154.510043,27.4563485 L154.522788,27.4689047 Z" id="Shape"></path>
                                <path d="M161.405198,5.7214247 C161.405198,4.09525094 162.743307,2.77697663 164.393948,2.77697663 C166.044589,2.77697663 167.382698,4.09525094 167.382698,5.7214247 C167.382698,7.34759847 166.044589,8.66587278 164.393948,8.66587278 C162.743307,8.66587278 161.405198,7.34759847 161.405198,5.7214247 Z M161.876771,29.5783601 L161.876771,10.7439374 L166.89838,10.7439374 L166.89838,29.5783601 L161.876771,29.5783601 Z" id="Shape"></path>
                                <path d="M169.523892,20.0983673 C169.523892,14.5991955 174.048926,10.1412359 179.630838,10.1412359 C185.21275,10.1412359 189.737784,14.5991955 189.737784,20.0983673 C189.737784,25.5975392 185.21275,30.0554988 179.630838,30.0554988 C174.048926,30.0554988 169.523892,25.5975392 169.523892,20.0983673 L169.523892,20.0983673 Z M184.524996,20.0983673 C184.524996,17.1727537 182.778903,14.6363848 179.618093,14.6363848 C176.457283,14.6363848 174.749425,17.1476411 174.749425,20.0983673 C174.749425,23.0490935 176.482773,25.5854625 179.618093,25.5854625 C182.753413,25.5854625 184.524996,23.0742061 184.524996,20.0983673 Z" id="Shape"></path>
                            </g>
                        </g>
                    </g>
                </g>
                <g id="Group-3" transform="translate(203.000000, 7.000000)" fill="#FCBF53">
                    <path d="M0,1.34290665 C0.0203499791,0.595811796 0.685999286,-3.79984998e-05 1.5,0.000195577222 C1.89334973,-0.00593871349 2.27306979,0.132446817 2.55474888,0.384589239 C2.83642797,0.636731661 2.99672279,0.981735432 3,1.34290665 C2.99320463,2.10088059 2.32559601,2.71380742 1.5,2.7200462 C0.679901428,2.70189554 0.0197699548,2.09583343 0,1.34290665 Z M0.5375,22 L0.5375,5.4169445 L2.5375,5.4169445 L2.5375,21.9885238 L0.5375,22 Z" id="Shape"></path>
                    <path d="M19.178634,21.977058 L19.178634,10.6896086 C19.178634,7.47773279 17.5735552,6.51417004 15.1830123,6.51417004 C13.0583047,6.60724869 11.0885275,7.66080968 9.82136602,9.38191633 L9.82136602,22 L8,22 L8,5.41295547 L9.82136602,5.41295547 L9.82136602,7.91363023 C11.3309829,6.16177582 13.4864189,5.10893908 15.7863398,5 C19.2014011,5 21,6.64035088 21,10.379892 L21,21.965587 L19.178634,21.977058 Z" id="Shape"></path>
                    <path d="M24,19.409739 L25.0970962,18.1369596 C26.4725899,19.6743659 28.5013581,20.5504784 30.6297641,20.5262122 C33.508167,20.5262122 35.2068966,19.119456 35.2068966,17.2326163 C35.2068966,12.7667236 24.3892922,15.3234471 24.3892922,9.47312766 C24.3892922,6.98339246 26.6188748,5.00723493 30.4882033,5.00723493 C32.8048085,4.91066774 35.0487648,5.78466757 36.6225045,7.39648754 L35.5961887,8.63577277 C34.3525926,7.17949616 32.4530297,6.36758865 30.4764065,6.44748533 C27.8103448,6.44748533 26.2177858,7.72026476 26.2177858,9.40613927 C26.2177858,13.4701017 37,10.9803665 37,17.2214516 C37,19.8451635 34.876588,21.9887921 30.5825771,21.9887921 C28.0892397,22.1152015 25.6693564,21.1670914 24,19.409739 L24,19.409739 Z" id="Shape"></path>
                    <path d="M42.8023256,19.326957 L42.8023256,7.29516429 L40,7.29516429 L40,5.65446528 L42.8023256,5.65446528 L42.8023256,1 L44.6627907,1 L44.6627907,5.65446528 L48.1511628,5.65446528 L48.1511628,7.28352813 L44.6627907,7.28352813 L44.6627907,19.0476891 C44.6627907,20.4091202 45.2209302,21.3749218 46.4186047,21.3749218 C47.1276803,21.3600142 47.801515,21.0626463 48.2906977,20.5487542 L49,21.9450938 C48.22608,22.6802349 47.1812156,23.0596888 46.1162791,22.9923485 C43.8837209,22.9923485 42.8023256,21.6425535 42.8023256,19.326957 Z" id="Shape"></path>
                    <path d="M51,22 L51,5.34599729 L52.9968799,5.34599729 L52.9968799,8.22930801 C54.3189556,6.32285516 56.5531938,5.12097292 59,5 L59,6.97218453 C58.6838823,6.91323608 58.3611849,6.88999933 58.0390016,6.90298507 C55.9651159,7.13302034 54.1225475,8.23553118 53.0468019,9.89009498 L53.0468019,22 L51,22 Z" id="Shape"></path>
                    <path d="M74.3894831,21.4751678 L74.3894831,19.1932886 C72.838893,20.9111915 70.6394447,21.9260412 68.3065954,22 C64.8306595,22 63,20.4255034 63,16.6832215 L63,5 L64.8538324,5 L64.8538324,16.295302 C64.8538324,19.5241611 66.4875223,20.414094 68.9206774,20.414094 C71.0630226,20.3367422 73.0608743,19.3301084 74.3778966,17.6644295 L74.3778966,5 L76,5 L76,21.4751678 L74.3894831,21.4751678 Z" id="Shape"></path>
                    <path d="M81,13.8946058 C81,8.94324242 84.1943987,5.00784273 89.0724876,5.00784273 C91.4021064,4.8962841 93.6304794,5.98063865 95,7.89224547 L93.7545305,9.06001986 C92.7192496,7.52608359 90.9746957,6.64279221 89.1416804,6.72447108 C85.2207578,6.72447108 82.8336079,9.88913968 82.8336079,13.9646723 C82.8336079,18.0402049 85.23229,21.2399068 89.1416804,21.2399068 C90.9732691,21.3148321 92.7147701,20.4330864 93.7545305,18.904358 L95,20.0721324 C93.6467813,22.0072092 91.4112128,23.1082781 89.0724876,22.9915683 C84.1943987,22.8164022 81,18.8459693 81,13.8946058 Z" id="Shape"></path>
                    <path d="M98.765685,19.326957 L98.765685,7.29516429 L96,7.29516429 L96,5.65446528 L98.7772087,5.65446528 L98.7772087,1 L100.620999,1 L100.620999,5.65446528 L104.078105,5.65446528 L104.078105,7.28352813 L100.620999,7.28352813 L100.620999,19.0476891 C100.620999,20.4091202 101.174136,21.3749218 102.361076,21.3749218 C103.091855,21.3821008 103.79286,21.0829509 104.297055,20.5487542 L105,21.9450938 C104.233017,22.6802349 103.197517,23.0596888 102.142125,22.9923485 C99.8489117,22.9923485 98.765685,21.6425535 98.765685,19.326957 Z" id="Shape"></path>
                    <path d="M107,13.4832787 C107,8.75672131 110.302509,5 115.469534,5 C120.636559,5 124,8.75672131 124,13.4832787 C124,18.2098361 120.697491,22 115.469534,22 C110.241577,22 107,18.2098361 107,13.4832787 Z M121.952688,13.4832787 C121.952688,9.89377049 119.649462,6.57180328 115.469534,6.57180328 C111.289606,6.57180328 109.022939,9.91606557 109.022939,13.4832787 C109.022939,17.0504918 111.362724,20.4281967 115.469534,20.4281967 C119.576344,20.4281967 121.952688,17.1062295 121.952688,13.4832787 Z" id="Shape"></path>
                    <path d="M128,22 L128,5.34599729 L129.99688,5.34599729 L129.99688,8.22930801 C131.318956,6.32285516 133.553194,5.12097292 136,5 L136,6.97218453 C135.683882,6.91323608 135.361185,6.88999933 135.039002,6.90298507 C132.965116,7.13302034 131.122548,8.23553118 130.046802,9.89009498 L130.046802,22 L128,22 Z" id="Shape"></path>
                    <path d="M138,19.4092487 L139.096102,18.1365126 C140.470348,19.6738666 142.497277,20.5499493 144.623753,20.5256839 C147.499547,20.5256839 149.196736,19.1189755 149.196736,17.2322001 C149.196736,12.7664593 138.388939,15.3230959 138.388939,9.47297546 C138.388939,6.98332498 140.6165,5.00723468 144.482321,5.00723468 C146.796826,4.91067078 149.038748,5.78464088 150.611061,7.396406 L149.585675,8.63564906 C148.345717,7.18265664 146.453073,6.37112971 144.482321,6.44743608 C141.818676,6.44743608 140.227561,7.7201722 140.227561,9.40598935 C140.227561,13.4698135 151,10.980163 151,17.2210357 C151,19.8446584 148.878513,21.988214 144.588395,21.988214 C142.093277,22.1180578 139.670488,21.1696798 138,19.4092487 L138,19.4092487 Z" id="Shape"></path>
                </g>
            </g>
        </g>
    </g>
</svg>