<svg xmlns="http://www.w3.org/2000/svg" viewBox="0 0 351.71 53.42"><defs><style>.cls-1{fill:#fffffb;}.cls-2{fill:#fcbf53;}.cls-3{fill:#fff;}.cls-4{fill:#fcfbfa;}.cls-5{fill:#252526;}.cls-6{fill:#e0e0e0;}.cls-7{fill:#56555c;}</style></defs><title>Instructor_Navbar_New</title><g id="Layer_2" data-name="Layer 2"><g id="Layer_1-2" data-name="Layer 1"><path class="cls-1" d="M78.45,31.61a6.63,6.63,0,0,1-.92,2A6.75,6.75,0,0,1,76,35.16a7.38,7.38,0,0,1-2.12,1.08,8.38,8.38,0,0,1-2.66.4,8.73,8.73,0,0,1-3.13-.57,7.58,7.58,0,0,1-2.62-1.66,8,8,0,0,1-1.79-2.68A9.21,9.21,0,0,1,63,28.16a8.9,8.9,0,0,1,.65-3.46,8,8,0,0,1,1.73-2.63,7.76,7.76,0,0,1,2.5-1.68A8.3,8.3,0,0,1,76.6,22a8.46,8.46,0,0,1,2.07,6q0,.45,0,.86t0,.47H67.24a3.42,3.42,0,0,0,.37,1.44,4,4,0,0,0,.87,1.15,3.93,3.93,0,0,0,1.24.76,4.17,4.17,0,0,0,1.52.27,3.73,3.73,0,0,0,2.37-.68,3.86,3.86,0,0,0,1.24-1.74Zm-4-5.2a3.89,3.89,0,0,0-.24-1.15,2.77,2.77,0,0,0-.65-1,3.33,3.33,0,0,0-1.1-.71,4.08,4.08,0,0,0-1.57-.27,3.59,3.59,0,0,0-1.49.29,3.66,3.66,0,0,0-1.1.74,3.29,3.29,0,0,0-.69,1,3.16,3.16,0,0,0-.27,1.1Z"/><path class="cls-1" d="M84.2,36a3.56,3.56,0,0,0,1.19,2.16,3.71,3.71,0,0,0,2.52.84A4.36,4.36,0,0,0,91,38a4.49,4.49,0,0,0,1.1-3.37V33.42a4.37,4.37,0,0,1-1.58,1.4,5.67,5.67,0,0,1-2.84.63,7.38,7.38,0,0,1-2.94-.58,7,7,0,0,1-2.34-1.61,7.6,7.6,0,0,1-1.55-2.44,8.55,8.55,0,0,1,0-6.07,7.92,7.92,0,0,1,1.52-2.47,7,7,0,0,1,2.32-1.68,7.2,7.2,0,0,1,3-.61,5.69,5.69,0,0,1,3,.68,4,4,0,0,1,1.52,1.49V20.28h4.13V34.45a10.52,10.52,0,0,1-.47,3.15,7,7,0,0,1-4.05,4.49,9.46,9.46,0,0,1-3.81.69,9,9,0,0,1-3-.47,8,8,0,0,1-2.34-1.26,6.54,6.54,0,0,1-1.61-1.84A6,6,0,0,1,80.33,37Zm4.26-4.23a3.57,3.57,0,0,0,2.7-1.1,4.07,4.07,0,0,0,1-2.94,3.92,3.92,0,0,0-1.1-2.92,3.64,3.64,0,0,0-2.65-1.08A4,4,0,0,0,87,24a3.43,3.43,0,0,0-1.21.81,3.78,3.78,0,0,0-.81,1.28,4.48,4.48,0,0,0-.29,1.65,4,4,0,0,0,1.07,3A3.69,3.69,0,0,0,88.46,31.77Z"/><path class="cls-1" d="M102.26,36a3.56,3.56,0,0,0,1.19,2.16A3.71,3.71,0,0,0,106,39a4.36,4.36,0,0,0,3.13-1,4.49,4.49,0,0,0,1.1-3.37V33.42a4.37,4.37,0,0,1-1.58,1.4,5.67,5.67,0,0,1-2.84.63,7.38,7.38,0,0,1-2.94-.58,7,7,0,0,1-2.34-1.61A7.6,7.6,0,0,1,99,30.82a8.55,8.55,0,0,1,0-6.07,7.92,7.92,0,0,1,1.52-2.47,7,7,0,0,1,2.32-1.68,7.2,7.2,0,0,1,3-.61,5.69,5.69,0,0,1,3,.68,4,4,0,0,1,1.52,1.49V20.28h4.13V34.45A10.52,10.52,0,0,1,114,37.6a7,7,0,0,1-4.05,4.49,9.46,9.46,0,0,1-3.81.69,9,9,0,0,1-3-.47,8,8,0,0,1-2.34-1.26,6.54,6.54,0,0,1-1.61-1.84A6,6,0,0,1,98.39,37Zm4.26-4.23a3.57,3.57,0,0,0,2.7-1.1,4.07,4.07,0,0,0,1-2.94,3.92,3.92,0,0,0-1.1-2.92,3.64,3.64,0,0,0-2.65-1.08A4,4,0,0,0,105,24a3.43,3.43,0,0,0-1.21.81,3.78,3.78,0,0,0-.81,1.28,4.48,4.48,0,0,0-.29,1.65,4,4,0,0,0,1.07,3A3.69,3.69,0,0,0,106.52,31.77Z"/><path class="cls-1" d="M120.84,36.16H117V12.78h3.85V21.6a4.28,4.28,0,0,1,2-1.34,7.24,7.24,0,0,1,2.33-.4,6.37,6.37,0,0,1,2.63.5,5.23,5.23,0,0,1,1.84,1.34,5.45,5.45,0,0,1,1.08,2,8.36,8.36,0,0,1,.36,2.45v10h-4.29V26.9a3.6,3.6,0,0,0-.69-2.26,2.65,2.65,0,0,0-2.24-.9,2.68,2.68,0,0,0-2.13.89,3.52,3.52,0,0,0-.84,2.21Z"/><path class="cls-1" d="M148.25,31.61a6.63,6.63,0,0,1-.92,2,6.75,6.75,0,0,1-1.53,1.6,7.38,7.38,0,0,1-2.12,1.08,8.38,8.38,0,0,1-2.66.4,8.73,8.73,0,0,1-3.13-.57,7.58,7.58,0,0,1-2.62-1.66,8,8,0,0,1-1.79-2.68,9.21,9.21,0,0,1-.66-3.58,8.9,8.9,0,0,1,.65-3.46,8,8,0,0,1,1.73-2.63,7.76,7.76,0,0,1,2.5-1.68,8.3,8.3,0,0,1,8.72,1.6,8.46,8.46,0,0,1,2.07,6q0,.45,0,.86t0,.47H137a3.42,3.42,0,0,0,.37,1.44,4,4,0,0,0,.87,1.15,3.93,3.93,0,0,0,1.24.76A4.17,4.17,0,0,0,141,33a3.73,3.73,0,0,0,2.37-.68,3.86,3.86,0,0,0,1.24-1.74Zm-4-5.2a3.89,3.89,0,0,0-.24-1.15,2.77,2.77,0,0,0-.65-1,3.33,3.33,0,0,0-1.1-.71,4.08,4.08,0,0,0-1.57-.27,3.59,3.59,0,0,0-1.49.29,3.66,3.66,0,0,0-1.1.74,3.29,3.29,0,0,0-.69,1,3.16,3.16,0,0,0-.27,1.1Z"/><path class="cls-1" d="M149.9,31.84a4.4,4.4,0,0,1,1.39-3.33,4.86,4.86,0,0,1,1.5-1,8.26,8.26,0,0,1,1.86-.52l3.91-.58a1.46,1.46,0,0,0,.94-.4,1.09,1.09,0,0,0,.26-.73,1.92,1.92,0,0,0-.66-1.45,3.06,3.06,0,0,0-5.05,2L150.23,25a5.23,5.23,0,0,1,.58-1.87,5.78,5.78,0,0,1,1.32-1.68,6.68,6.68,0,0,1,2.07-1.21,8,8,0,0,1,2.84-.47,9.06,9.06,0,0,1,3.2.5,6,6,0,0,1,2.15,1.32,4.91,4.91,0,0,1,1.19,1.92,7.11,7.11,0,0,1,.37,2.29v7.82q0,.65.06,1.37t.13,1.15H160.2a8.29,8.29,0,0,1-.11-.89q0-.57,0-1a5.54,5.54,0,0,1-1.76,1.65,5.47,5.47,0,0,1-2.92.71,6.13,6.13,0,0,1-2.28-.4,5.45,5.45,0,0,1-1.73-1.07,4.52,4.52,0,0,1-1.08-1.52A4.45,4.45,0,0,1,149.9,31.84Zm6.36,1.58a4.79,4.79,0,0,0,1.31-.18,2.77,2.77,0,0,0,1.11-.61,3.1,3.1,0,0,0,.77-1.13,4.59,4.59,0,0,0,.29-1.76V29l-3.58.55a2.83,2.83,0,0,0-1.4.6,1.72,1.72,0,0,0-.57,1.4,1.84,1.84,0,0,0,.52,1.28A2,2,0,0,0,156.26,33.42Z"/><path class="cls-1" d="M182,33.29q0,.81,0,1.6t.1,1.28h-4.1a5.51,5.51,0,0,1-.11-.77q0-.52,0-1.07a4.4,4.4,0,0,1-1.7,1.58,5.54,5.54,0,0,1-2.76.65,7.65,7.65,0,0,1-3.13-.63,7.22,7.22,0,0,1-2.44-1.74,8.18,8.18,0,0,1-1.6-2.65,9.8,9.8,0,0,1,0-6.6,8.13,8.13,0,0,1,1.57-2.63,7.65,7.65,0,0,1,7.28-2.21,5.93,5.93,0,0,1,1.31.48,3.69,3.69,0,0,1,.89.63,2.61,2.61,0,0,1,.5.66V12.78H182Zm-12-5.1a4.69,4.69,0,0,0,1.11,3.33,3.88,3.88,0,0,0,5.6,0,4.7,4.7,0,0,0,1.13-3.36,4.47,4.47,0,0,0-1.13-3.28,3.94,3.94,0,0,0-5.57,0A4.49,4.49,0,0,0,170,28.19Z"/><path class="cls-1" d="M184.23,34.5a1.61,1.61,0,0,1,.47-1.17,1.55,1.55,0,0,1,1.15-.48,1.65,1.65,0,0,1,1.65,1.65,1.55,1.55,0,0,1-.48,1.15,1.61,1.61,0,0,1-1.17.47,1.61,1.61,0,0,1-1.63-1.63Z"/><path class="cls-1" d="M189.63,17.18a2.34,2.34,0,0,1,4.69,0,2.34,2.34,0,1,1-4.69,0Zm.37,19v-15h3.94v15Z"/><path class="cls-1" d="M196,28.63a7.93,7.93,0,0,1,15.86,0,7.93,7.93,0,0,1-15.86,0Zm11.77,0c0-2.33-1.37-4.35-3.85-4.35s-3.82,2-3.82,4.35S201.46,33,203.92,33,207.77,31,207.77,28.63Z"/><path class="cls-2" d="M221.15,17.55a1.2,1.2,0,0,1,1.2-1.17,1.18,1.18,0,0,1,1.2,1.17,1.21,1.21,0,0,1-1.2,1.2A1.23,1.23,0,0,1,221.15,17.55Zm.43,18V21.1h1.6V35.54Z"/><path class="cls-2" d="M237.82,35.54V25.7c0-2.8-1.41-3.64-3.51-3.64a6.2,6.2,0,0,0-4.71,2.5v11H228V21.1h1.6v2.18a7.4,7.4,0,0,1,5.24-2.54c3,0,4.58,1.43,4.58,4.69v10.1Z"/><path class="cls-2" d="M243,33.61l.93-1.14a6.05,6.05,0,0,0,4.69,2.14c2.44,0,3.88-1.26,3.88-2.95,0-4-9.17-1.71-9.17-6.95,0-2.23,1.89-4,5.17-4a6.68,6.68,0,0,1,5.2,2.14l-.87,1.11A5.29,5.29,0,0,0,248.49,22c-2.26,0-3.61,1.14-3.61,2.65,0,3.64,9.14,1.41,9.14,7,0,2.35-1.8,4.27-5.44,4.27A7,7,0,0,1,243,33.61Z"/><path class="cls-2" d="M258.28,32.85V22.51h-2.41V21.1h2.41v-4h1.6v4h3v1.4h-3V32.61c0,1.17.48,2,1.51,2A2.29,2.29,0,0,0,263,33.9l.61,1.2a3.3,3.3,0,0,1-2.48.9C259.21,36,258.28,34.84,258.28,32.85Z"/><path class="cls-2" d="M266.3,35.54V21.1h1.6v2.5a6.1,6.1,0,0,1,4.81-2.8v1.71a3.19,3.19,0,0,0-.77-.06,5.42,5.42,0,0,0-4,2.59v10.5Z"/><path class="cls-2" d="M285.75,35.54v-2A7.34,7.34,0,0,1,280.5,36c-3,0-4.58-1.38-4.58-4.66V21.1h1.6V31c0,2.83,1.41,3.61,3.51,3.61a6.26,6.26,0,0,0,4.71-2.41V21.1h1.4V35.54Z"/><path class="cls-2" d="M291.29,28.29c0-4.24,2.77-7.61,7-7.61a6,6,0,0,1,5.14,2.47l-1.08,1a4.6,4.6,0,0,0-4-2c-3.4,0-5.47,2.71-5.47,6.2s2.08,6.23,5.47,6.23a4.63,4.63,0,0,0,4-2l1.08,1a5.94,5.94,0,0,1-5.14,2.5C294.06,35.93,291.29,32.53,291.29,28.29Z"/><path class="cls-2" d="M307.2,32.85V22.51H304.8V21.1h2.41v-4h1.6v4h3v1.4h-3V32.61c0,1.17.48,2,1.51,2A2.29,2.29,0,0,0,312,33.9l.61,1.2a3.3,3.3,0,0,1-2.48.9C308.14,36,307.2,34.84,307.2,32.85Z"/><path class="cls-2" d="M314.42,28.29c0-4.24,2.71-7.61,6.95-7.61s7,3.37,7,7.61-2.71,7.64-7,7.64S314.42,32.53,314.42,28.29Zm12.27,0c0-3.22-1.89-6.2-5.32-6.2s-5.29,3-5.29,6.2,1.92,6.23,5.29,6.23S326.69,31.54,326.69,28.29Z"/><path class="cls-2" d="M332.47,35.54V21.1h1.6v2.5a6.1,6.1,0,0,1,4.81-2.8v1.71a3.19,3.19,0,0,0-.77-.06,5.42,5.42,0,0,0-4,2.59v10.5Z"/><path class="cls-2" d="M340.68,33.61l.93-1.14a6.05,6.05,0,0,0,4.69,2.14c2.44,0,3.88-1.26,3.88-2.95,0-4-9.17-1.71-9.17-6.95,0-2.23,1.89-4,5.17-4a6.68,6.68,0,0,1,5.2,2.14l-.87,1.11A5.29,5.29,0,0,0,346.18,22c-2.26,0-3.61,1.14-3.61,2.65,0,3.64,9.14,1.41,9.14,7,0,2.35-1.8,4.27-5.44,4.27A7,7,0,0,1,340.68,33.61Z"/><path class="cls-3" d="M25.82,53.42A20.3,20.3,0,0,1,5.51,34.13v0a4.84,4.84,0,0,1-4.08-3.62A41.47,41.47,0,0,1,0,21.74a4.54,4.54,0,0,1,2.7-4.29,28.6,28.6,0,0,1,7-1.81,41.25,41.25,0,0,1,5.71-9.72C18.65,2,22.15,0,25.82,0S33,2,36.22,5.91a41.2,41.2,0,0,1,5.71,9.71,28.21,28.21,0,0,1,7,1.82,4.53,4.53,0,0,1,2.7,4.29,41.5,41.5,0,0,1-1.43,8.75,4.84,4.84,0,0,1-4.1,3.62v0a20.4,20.4,0,0,1-1.37,6.39,20.33,20.33,0,0,1-18.94,12.9Z"/><path class="cls-4" d="M25.79,4.24c9.15,0,16.58,19.68,16.58,28.83a16.58,16.58,0,1,1-33.15,0C9.21,23.92,16.63,4.24,25.79,4.24Z"/><path class="cls-5" d="M46.8,21.11,40,22.65l1.06,2.08s6.74-.56,6.74-.56Z"/><path class="cls-5" d="M4.77,21.11l6.76,1.55-1.06,2.08s-6.74-.56-6.74-.56Z"/><path class="cls-6" d="M18.83,19.56A2.11,2.11,0,0,1,21,21.33a27.79,27.79,0,0,1,.42,3.49,4.46,4.46,0,0,1-.09,1c-.08-.84-.21-1.65-.33-2.34a2.11,2.11,0,0,0-2.13-1.77,57.81,57.81,0,0,0-7.59.58c.24-.74.49-1.48.77-2.22A57.38,57.38,0,0,1,18.83,19.56Z"/><path class="cls-6" d="M42.33,32.34a33,33,0,0,1-12.22-2.9,4.3,4.3,0,0,1-2.37-3.61c-.22,2.51.25,4.79,2.6,5.92a31.76,31.76,0,0,0,11.95,2.72c0-.46.06-.92.06-1.38C42.35,32.84,42.34,32.59,42.33,32.34Z"/><path class="cls-6" d="M9.26,32.34a33,33,0,0,0,12.22-2.9,4.3,4.3,0,0,0,2.37-3.61c.22,2.51-.25,4.79-2.6,5.92A31.76,31.76,0,0,1,9.3,34.46c0-.46-.06-.92-.06-1.38C9.24,32.84,9.25,32.59,9.26,32.34Z"/><path class="cls-6" d="M32.73,19.56a2.11,2.11,0,0,0-2.13,1.77,27.79,27.79,0,0,0-.42,3.49,4.46,4.46,0,0,0,.09,1c.08-.84.21-1.65.33-2.34a2.11,2.11,0,0,1,2.13-1.77,57.81,57.81,0,0,1,7.59.58c-.24-.74-.49-1.48-.77-2.22A57.38,57.38,0,0,0,32.73,19.56Z"/><path class="cls-7" d="M40.12,18.23,38.51,18l-.25,0-.1-.23c-3.43-8-7-11-8.87-12a7,7,0,0,0-3.51-1,7,7,0,0,0-3.51,1c-4.28,2.47-7.39,8.61-8.87,12l-.1.23-.25,0-1.61.19-.73.1.28-.68a39.57,39.57,0,0,1,5.7-10c2.87-3.48,5.93-5.25,9.08-5.25S32,4.22,34.87,7.7a39.53,39.53,0,0,1,5.7,10l.28.68Z"/><path class="cls-7" d="M42.51,30.58l-1.36-.06-.39,0,0-.39a51.33,51.33,0,0,0-2.54-10.3l-.26-.73.76.1,1.5.23.28,0,.09.27A52.54,52.54,0,0,1,43,30.05l.06.54Z"/><path class="cls-5" d="M41.38,22.4c-.26-.89-.54-1.78-.84-2.67l-.09-.27-.28,0-1.5-.23-.76-.1.26.73c.27.76.52,1.52.75,2.28C40,22.22,40.75,22.32,41.38,22.4Z"/><path class="cls-7" d="M8.69,30a52.54,52.54,0,0,1,2.45-10.32l.09-.27.28,0,1.5-.23.76-.1-.26.73A51.32,51.32,0,0,0,11,30l0,.39-.39,0-1.36.06H8.63Z"/><path class="cls-5" d="M12.74,22.09c.24-.78.5-1.57.77-2.34l.26-.73-.76.1-1.5.23-.28,0-.09.27c-.3.88-.58,1.77-.83,2.65C11.4,22.18,11.8,22.18,12.74,22.09Z"/><path class="cls-7" d="M25.79,51.45A18.38,18.38,0,0,1,8.69,39.81a18.6,18.6,0,0,1-1.26-7.48v-.4h.4l1.41-.05.46,0,0,.46a16.15,16.15,0,0,0,1.07,6.61,16.11,16.11,0,0,0,26.64,5.32,16,16,0,0,0,3.39-5.32,16.15,16.15,0,0,0,1.07-6.61l0-.46.46,0,1.41.05h.4v.4a18.6,18.6,0,0,1-1.26,7.47,18.36,18.36,0,0,1-17.1,11.65Z"/><path class="cls-5" d="M9.7,32.31l0-.46-.46,0-1.41.05h-.4v.4a19.51,19.51,0,0,0,0,2.18l2.26-.07A17.48,17.48,0,0,1,9.7,32.31Z"/><path class="cls-5" d="M44.09,34.5a19.49,19.49,0,0,0,0-2.17v-.4h-.4l-1.41-.05-.46,0,0,.46a17.48,17.48,0,0,1,0,2.1Z"/><path class="cls-5" d="M44.77,32.46a39.39,39.39,0,0,1-10.24-1.25,24.83,24.83,0,0,1-4.18-1.49h0c-2.81-1.35-2.93-4-2.66-6.51a2,2,0,0,0-.82-1.88,1.86,1.86,0,0,0-2.07,0,2,2,0,0,0-.82,1.88c.26,2.47.15,5.17-2.66,6.52l0,0a24.91,24.91,0,0,1-4.18,1.47A39.39,39.39,0,0,1,6.82,32.46h0a3.1,3.1,0,0,1-3-2.32,38.32,38.32,0,0,1-1.33-8,2.85,2.85,0,0,1,1.7-2.69C8,17.67,15.9,17,19.26,17.08a4.34,4.34,0,0,1,3.12,1.29,8.37,8.37,0,0,1,3.42-.79,8.38,8.38,0,0,1,3.42.79,4.32,4.32,0,0,1,3.12-1.29c2,0,10.68.35,15.11,2.32a2.86,2.86,0,0,1,1.7,2.7,38.15,38.15,0,0,1-1.33,8,3.1,3.1,0,0,1-3,2.32Zm-12-12.78a2,2,0,0,0-2,1.68,27.86,27.86,0,0,0-.42,3.47,2.69,2.69,0,0,0,1.42,2.71,31,31,0,0,0,12.63,2.39.84.84,0,0,0,.82-.62,34,34,0,0,0,1.18-7.08.59.59,0,0,0-.35-.56C42.61,20.16,35.38,19.64,32.75,19.68Zm-27.16,2a.59.59,0,0,0-.35.56A34.07,34.07,0,0,0,6.42,29.3a.84.84,0,0,0,.81.62,31,31,0,0,0,12.64-2.4,2.69,2.69,0,0,0,1.41-2.71,27.64,27.64,0,0,0-.42-3.47,2,2,0,0,0-2-1.68C17.3,19.66,9.41,20,5.59,21.67Z"/></g></g></svg>