<svg xmlns="http://www.w3.org/2000/svg" xmlns:xlink="http://www.w3.org/1999/xlink" viewBox="0 0 148.39 184.71"><defs><style>.cls-1{fill:url(#linear-gradient);}.cls-2{fill:#f1edeb;}.cls-3{fill:#9399a1;opacity:0.3;}.cls-4{fill:#e97c43;}.cls-5{fill:#ec8030;}.cls-6{fill:#f09f4f;}.cls-7{fill:#cbcc5f;}.cls-8{fill:#fbd170;}</style><linearGradient id="linear-gradient" x1="10477.89" y1="30.38" x2="10477.89" y2="65.46" gradientTransform="matrix(-1, 0, 0, 1, 10606.98, 0)" gradientUnits="userSpaceOnUse"><stop offset="0" stop-color="#fcd06a"/><stop offset="1" stop-color="#ee8d4c"/></linearGradient></defs><title>Teacher-Eggo-onDark</title><g id="Layer_2" data-name="Layer 2"><g id="Layer_1-2" data-name="Layer 1"><path class="cls-1" d="M147.95,15l-7.74,4.62a.9.9,0,0,0,0,1.54l7.74,4.62a.9.9,0,0,1,.32,1.21l-4,7.12a.9.9,0,0,1-1.24.33l-7.63-4.56a.9.9,0,0,0-1.36.77v9.2a.9.9,0,0,1-.9.9H125a.9.9,0,0,1-.9-.9V30.64a.9.9,0,0,0-1.36-.77l-7.5,4.54a.9.9,0,0,1-1.24-.32L109.9,27a.9.9,0,0,1,.32-1.22l7.83-4.61a.9.9,0,0,0,0-1.55L110.22,15a.9.9,0,0,1-.32-1.22L114,6.63a.9.9,0,0,1,1.24-.32l7.5,4.54a.9.9,0,0,0,1.36-.77V.9A.9.9,0,0,1,125,0h8.12a.9.9,0,0,1,.9.9v9.2a.9.9,0,0,0,1.36.77L143,6.31a.9.9,0,0,1,1.24.33l4,7.12A.9.9,0,0,1,147.95,15Z"/><path class="cls-2" d="M46.75,18.32c31.93-8.67,55.87,25.95,69.91,58.23h-3.91l.81,14.89,7.65,14.51,5.4-2.11c.95,3.2,1.74,6.17,2.38,8.84,7.62,31.61-13,63.14-46.27,70.49S16.12,170.88,8.37,139.3,13.87,27.24,46.75,18.32Z"/><path class="cls-3" d="M130.06,118.4a57.12,57.12,0,0,0-1.07-5.73c-.09-.35-.18-.73-.27-1.09l-2.56,1.33-4.75-7-.2.08-.91-1.72-5.45-8.08-.54-3.29-.75-1.42-.25-4.64L111.86,78l1-.1-.08-1.4h3.32c-2.41-4.18-5-8.37-7.67-12.5-4.21,1.13-8.51,3-10.26,5.72-5.37,1.07-12.74-2.66-15-3.34-17.22-5.2-28.33-3.35-45.89.25a8.25,8.25,0,0,0-1.89.64l0-.1L9.82,81.5c-1.12,5.8-2,11.63-2.58,17.32l5-3.17s16.77,45,24.26,45.15c10.24.21,34.57-3.11,43-9.89C91,121.72,94.49,117.07,94.1,105.58c.18-6.91,0-12.71,2.47-13.06S104.38,129.84,130.06,118.4Zm-91.89,9.95c-6.11-10.22-17.47-37.44-17.48-37.84.14,0,21.51-17.39,52.06-14.16C83,138.19,38.43,128.8,38.17,128.35Z"/><polygon class="cls-2" points="125.59 64.83 132.76 108.01 121.16 107.82 115.07 72.21 115.48 64.96 125.59 64.83"/><path class="cls-4" d="M134.1,103.94a15.71,15.71,0,0,1-4.78,1.89l-5.24.55a15.71,15.71,0,0,0,4.78-1.89Z"/><path class="cls-4" d="M61.51,65.41c-6.71,0-17.09,4.46-16.9,4.44,12.7-1.61,24.29-2.62,31.66,0l5.44-1.2C74.35,66,68.79,65.46,61.51,65.41Z"/><path class="cls-4" d="M123.39,67.49l5.29-.09c.08.49,5.37,35.69,5.42,36.53l-5.24.55C128.81,103.65,123.47,68,123.39,67.49Z"/><path class="cls-5" d="M123.44,67.83a32,32,0,0,0-6.81-1l3.23-.34a26.22,26.22,0,0,1,8.82.94Z"/><path class="cls-4" d="M106.83,69c-.07-.46-.11-.91-.15-1.35v.08c3.64,24.35,3.91,43.17,20.07,48.6a8.76,8.76,0,0,0,3.69.31l-4.77.5C110.73,111.22,110.38,92.74,106.83,69Z"/><path class="cls-6" d="M101.44,68.24c-.36-4.57,1.49-6.71,3.38-8.05a17.51,17.51,0,0,1,4.81-2.41c-3.18,1.75-3.54,5.8-2.95,9.9Z"/><path class="cls-4" d="M106.68,67.68c0,.44.08.88.15,1.35,3.55,23.72,3.9,42.19,18.86,48.14l-.48.05a8.76,8.76,0,0,1-3.69-.31c-16.16-5.42-16.43-24.25-20.07-48.6v-.07Z"/><path class="cls-4" d="M105.86,96.09s-1.85-9.67-6.46-8.52c-2.84.71-1.5,4.38-2,12.94L88.53,67.57c10.17,5.15,11.92,1.21,18.61-1.33Z"/><path class="cls-4" d="M76.26,69.76c12.27,48.9-3.39,53.5-22.53,55.92l5.67-.6c35-4.42,27.14-26.24,22.72-55.08a4.86,4.86,0,0,0-.41-1.39s-5.52.92-5.45,1.15"/><path class="cls-7" d="M48.32,135.21l-5.67.6c1.37-.06,3-.18,4.71-.36l5.67-.6C51.28,135,49.69,135.14,48.32,135.21Z"/><path class="cls-4" d="M41.69,125.07l-5.67.6c1.11,7.25,5.82,12.2,10.7,11.68l5.67-.6C47.51,137.27,42.8,132.32,41.69,125.07Z"/><path class="cls-4" d="M0,96S2.29,84.19,5.88,82.12L43.8,61l-4,15.5-5.17,2.76,7,45.84-5.67.6L30.15,87.31a3.86,3.86,0,0,0-5.68-2.63L7.32,96.76Z"/><path class="cls-8" d="M0,96,26.27,77.1C30.81,74,34.64,79,35.08,81.93l6.61,43.14c1.11,7.25,5.82,12.2,10.7,11.68a6.78,6.78,0,0,0,1.06-.2c1.37-.06,3-.18,4.71-.36,8.19-.87,19.53-3.18,25.23-7.75,12.78-10.24,15-20.64,13.75-34-.59-14.49,3-16.23,5.94-15.71s5,7.85,6,12.21c2.4,12.75,6.27,22,17.14,25.48a9.32,9.32,0,0,0,3.81.29c4.11-.43,6-1.57,8.82-3.55,2.71-1.87,3.34-5.38,2.55-10.59-5.11-33.86-5.19-42.43-10.28-43.7-6.54-1.64-10.21-3.09-22.38-1-3.13,1.2-7.67,9-18.77,3C79.65,53,47.17,55.54,36.46,58.3L5.94,79.78C2.36,81.85.2,87.48,0,91.45ZM116.3,67.07c3.89-1,7-.78,12.09.37.08.49,5.42,35.68,5.46,36.53a16.67,16.67,0,0,1-4.95,1.91C120.1,102.61,119.92,91,116.3,67.07ZM44.61,69.85C58.79,67,68.09,65.5,81.71,68.61A4.85,4.85,0,0,1,82.11,70c4.41,28.84,12.24,50.66-22.72,55.08a6.38,6.38,0,0,1-7.09-5.17C49.91,105.73,44.61,70.25,44.61,69.85Z"/><path class="cls-8" d="M60,64.52h0Zm0,0h0Z"/></g></g></svg>
